<svg width="20" height="21" viewBox="0 0 20 21" fill="none" xmlns="http://www.w3.org/2000/svg">
<path fill-rule="evenodd" clip-rule="evenodd" d="M8.45313 1.35651C9.05673 1.92408 8.91122 2.78313 8.63508 3.41723L8.63457 3.4184C8.22217 4.36102 7.99546 5.39431 8.00387 6.48732L8.00389 6.48998C8.02068 10.5459 11.3932 14.0084 15.524 14.1774L15.5246 14.1774C16.1346 14.2028 16.7176 14.1605 17.2836 14.0592C17.6627 13.9902 18.0353 13.9778 18.3713 14.0562C18.7141 14.1361 19.0594 14.3233 19.274 14.6744C19.4876 15.0239 19.4975 15.4148 19.417 15.7535C19.3378 16.087 19.1636 16.4135 18.9367 16.7209C16.9616 19.4231 13.6737 21.1339 10.0049 20.9748L10.0044 20.9748C4.7973 20.7458 0.439436 16.5811 0.0788232 11.4289C-0.250579 6.86208 2.45997 2.88545 6.39837 1.22456C7.03118 0.956541 7.8729 0.810927 8.45313 1.35651ZM7.36518 2.49126C7.27774 2.50302 7.15075 2.5348 6.98257 2.60611L6.98123 2.60668C3.59592 4.03433 1.29446 7.43675 1.57499 11.3217L1.57511 11.3234C1.88073 15.6955 5.60466 19.2796 10.0699 19.4762C13.2249 19.613 16.0397 18.1433 17.7267 15.8344L17.7291 15.8312C17.8307 15.6936 17.8907 15.5838 17.9246 15.5035C17.8393 15.4992 17.7168 15.5049 17.5514 15.5351L17.549 15.5355C16.8764 15.656 16.1838 15.7061 15.4627 15.6761C10.5499 15.4752 6.52483 11.374 6.50391 6.49753C6.49401 5.1869 6.76657 3.94596 7.26011 2.81768C7.32211 2.67519 7.352 2.56714 7.36518 2.49126ZM7.48777 2.48881C7.48775 2.48883 7.48728 2.48872 7.48639 2.48846L7.48777 2.48881Z" fill="#5C5F61"/>
</svg>
